<svg xmlns="http://www.w3.org/2000/svg" width="119.913" height="41" viewBox="0 0 119.913 41">
    <defs>
        <clipPath id="9hkkwic0aa">
            <path data-name="Path 654" d="M0-41.976h119.913v-41H0z" transform="translate(50 132.976)" style="fill:none"/>
        </clipPath>
    </defs>
    <g data-name="Mask Group 2" transform="translate(-50 -50)" style="clip-path:url(#9hkkwic0aa)">
        <g data-name="Group 1473">
            <path data-name="Path 645" d="M-9.362 0H-.3a.686.686 0 0 1 .69.685v9.067a1.372 1.372 0 0 1-.4.969l-7.773 7.773a1.369 1.369 0 0 1-.969.4h-9.066a.686.686 0 0 1-.686-.685V9.144a1.372 1.372 0 0 1 .4-.969L-10.332.4a1.369 1.369 0 0 1 .97-.4" transform="translate(68.507 50)" style="fill:#70c4ce"/>
        </g>
        <g data-name="Group 1474">
            <path data-name="Path 646" d="M-9.984 0h-9.066a.685.685 0 0 0-.686.685v9.067a1.372 1.372 0 0 0 .4.969l7.773 7.773a1.371 1.371 0 0 0 .97.4h9.066a.685.685 0 0 0 .685-.685V9.144a1.372 1.372 0 0 0-.4-.969L-9.015.4a1.369 1.369 0 0 0-.969-.4" transform="translate(91.795 50)" style="fill:#70c4ce"/>
        </g>
        <g data-name="Group 1475">
            <path data-name="Path 647" d="M-9.984-19.346h-9.066a.685.685 0 0 1-.686-.685V-29.1a1.372 1.372 0 0 1 .4-.969l7.773-7.773a1.372 1.372 0 0 1 .97-.4h9.066a.685.685 0 0 1 .685.685v9.067a1.372 1.372 0 0 1-.4.969l-7.773 7.773a1.369 1.369 0 0 1-.969.4" transform="translate(91.795 110.346)" style="fill:#70c4ce"/>
        </g>
        <g data-name="Group 1476">
            <path data-name="Path 648" d="M-9.362-19.346H-.3a.686.686 0 0 0 .686-.685V-29.1a1.372 1.372 0 0 0-.4-.969l-7.773-7.773a1.371 1.371 0 0 0-.969-.4h-9.066a.686.686 0 0 0-.686.685v9.067a1.372 1.372 0 0 0 .4.969l7.773 7.773a1.369 1.369 0 0 0 .969.4" transform="translate(68.507 110.346)" style="fill:#70c4ce"/>
        </g>
        <g data-name="Group 1477">
            <path data-name="Path 649" d="M-4.635-9.4a6.607 6.607 0 0 1 2.393-3.578 6.817 6.817 0 0 1 4.29-1.38 6.263 6.263 0 0 1 3.881 1.272A6.382 6.382 0 0 1 8.214-9.4zm.258 4.226h16.946q.086-.826.131-1.34c.028-.345.043-.589.043-.733a12.251 12.251 0 0 0-.776-4.377 11.3 11.3 0 0 0-2.177-3.6 10.283 10.283 0 0 0-3.363-2.458 10.319 10.319 0 0 0-4.376-.906 11.747 11.747 0 0 0-4.506.841A10.51 10.51 0 0 0-5.994-15.4a10.941 10.941 0 0 0-2.328 3.557 11.76 11.76 0 0 0-.84 4.506 13.29 13.29 0 0 0 .178 2.156 10.043 10.043 0 0 0 .392 1.633c.084.264.168.528.27.781A10.31 10.31 0 0 0-5.95.795 10.753 10.753 0 0 0-2.328 3.1a12.361 12.361 0 0 0 4.549.819A10.925 10.925 0 0 0 7.5 2.627a12.227 12.227 0 0 0 4.034-3.492L7.74-3.021a7.481 7.481 0 0 1-2.371 1.983 6.511 6.511 0 0 1-3.1.733 7.289 7.289 0 0 1-4.42-1.337 6.521 6.521 0 0 1-1.74-1.9 3.2 3.2 0 0 1-.481-1.633" transform="translate(140.727 77.848)" style="fill:#fff"/>
        </g>
        <g data-name="Group 1478">
            <path data-name="Path 650" d="M-9.671-4.921a5.7 5.7 0 0 1 3.3-.754l2.419-.025v-4.027h-3.2a7.585 7.585 0 0 0-5.519 2.048 7.069 7.069 0 0 0-2.091 5.1v1.99h-4.36V3.38h4.36v17.593h4.225V3.38h6.581V-.586h-6.581v-1.482c0-.951.08-2.234.861-2.853" transform="translate(173.865 60.322)" style="fill:#fff"/>
        </g>
        <path data-name="Path 651" d="M0-41.976h119.913v-41H0z" transform="translate(50 132.976)" style="fill:none"/>
        <path data-name="Path 652" d="M103.308-41.715h4.225v-21.559h-4.225z" transform="translate(-2.262 123.009)" style="fill:#fff"/>
        <g data-name="Group 1479">
            <path data-name="Path 653" d="M0-11.448A10.887 10.887 0 0 1 11.143-22.63c5.065 0 9.545 3.078 10.519 8.26H17.1a5.935 5.935 0 0 0-5.961-4.169c-3.974 0-6.7 2.961-6.7 7.091 0 4.169 2.805 7.091 6.662 7.091a6.028 6.028 0 0 0 6-4.208h4.559c-1.013 5.3-5.532 8.3-10.558 8.3A10.877 10.877 0 0 1 0-11.448" transform="translate(107.456 81.891)" style="fill:#fff"/>
        </g>
    </g>
</svg>
