<svg xmlns="http://www.w3.org/2000/svg" width="451" height="350" viewBox="0 0 451 350"><title>up-education-logo</title><path d="M172.5 258.6V108H98.9v232c-4 .6-8.2 1-12.4 1-4.2 0-8.4-.3-12.4-1V143.7H.6v122.8c.1 2.4.3 4.7.6 7 3.5 29.4 21.9 54.2 47.5 66.8.2.1.3.2.5.2.5.3 1 .5 1.6.7.4.2.9.4 1.3.6.2.1.4.2.6.2.8.3 1.6.7 2.4 1 .3.1.7.3 1 .4.4.2.8.3 1.2.5.8.3 1.6.6 2.4.8.2 0 .3.1.5.1.5.2 1 .3 1.4.5.3.1.7.2 1 .3.3.1.6.2.9.2.5.1 1 .3 1.5.4.1 0 .2.1.4.1 6.8 1.7 14 2.7 21.3 2.7 7.4 0 14.5-.9 21.4-2.7.1 0 .2 0 .2-.1.6-.1 1.1-.3 1.6-.4.2-.1.5-.1.7-.2l1.2-.3c.4-.1.8-.3 1.3-.4.2-.1.4-.1.6-.2.8-.3 1.6-.6 2.4-.8.4-.1.8-.3 1.2-.5.4-.1.7-.3 1.1-.4.8-.3 1.6-.6 2.4-1 .2-.1.3-.1.5-.2.5-.2.9-.4 1.3-.6.5-.2 1-.5 1.5-.7.2-.1.3-.2.5-.2 25.3-12.5 43.6-37 47.4-66 .3-2.3.5-4.6.6-6.9 0-1.4 0-7.4-.1-8.8zm196.7-111.3V36.8h-73.6v190.7c-4 .6-8.2 1-12.4 1-4.2 0-8.4-.3-12.4-1V72.8h-73.6v276.7h73.6V235.8c4.1.6 8.2.9 12.4.9 7.4 0 14.5-.9 21.4-2.7.1 0 .2 0 .2-.1.6-.1 1.1-.3 1.6-.4.2-.1.5-.1.7-.2l1.2-.3c.4-.1.8-.3 1.3-.4.2-.1.4-.1.6-.2.8-.3 1.6-.6 2.4-.8.4-.1.8-.3 1.2-.5.4-.1.7-.3 1.1-.4.8-.3 1.6-.6 2.4-1 .2-.1.3-.1.5-.2.5-.2.9-.4 1.3-.6.5-.2 1-.5 1.5-.7.2-.1.3-.2.5-.2 25.3-12.5 43.6-37 47.4-66 .3-2.3.5-4.6.6-6.9 0-.8.1-2.7.1-4.6v-3.2zM450.5.9v31h-8.7V11.1h-8.2v16.5h-8.8V11.1h-10.6v21.5h-8.8V.9zm0 36.5v15.4c0 12.4-7.1 23.4-22.5 23.4s-22.5-11-22.5-23.4V37.4h45zm-36.4 14.3c0 7.3 3.3 14.2 13.8 14.2s13.9-7 13.9-14.2v-4.3h-27.6v4.3h-.1zm8 29.3h28.3v9.5h-28.3c-5.9 0-8.5 3.6-8.5 8.6s2.6 8.6 8.5 8.6h28.3v9.5h-28.3c-11.5 0-17.3-7.4-17.3-18.1.1-10.7 5.8-18.1 17.3-18.1zm5.8 41.1c15.2 0 23.1 10.6 23.1 22.7 0 11.3-6.1 19.1-15.4 20.4l-2.1-10.1c5.4-1 8.8-5.2 8.8-10.4 0-6.8-5-12.4-14.4-12.4s-14.3 5.5-14.3 12.4c0 5.3 3 9.1 7.9 10.1l-2.3 10.2c-9-2.1-14.3-9.7-14.3-20.3 0-12.2 7.8-22.6 23-22.6zm-13.2 72.6v-16.1l-9.3-3.3v-10.6l45.1 17.1v9.6l-45.1 17.1V198l9.3-3.3zm8.5-3.1l14-5-14-5v10zm18.6 24.3v-13.3h8.7v36.7h-8.7v-13.2h-36.4v-10.2h36.4zm8.7 28.6v10.2h-45.1v-10.2zm-22.6 16.4c13.3 0 23.1 9.8 23.1 23.2 0 13.3-9.8 23.1-23.1 23.1s-23.1-9.8-23.1-23.1c.1-13.4 9.9-23.2 23.1-23.2zm0 36c8.2 0 14.4-5.4 14.4-12.9 0-7.6-6.1-12.9-14.4-12.9s-14.3 5.3-14.3 12.9c0 7.5 6.1 12.9 14.3 12.9zm22.6 15V322l-29 17.5h29v9.5h-45.1v-10.1l29-17.5h-29v-9.5z" fill="#EA4F3D"></path></svg>